<svg width="243" height="178" viewBox="0 0 243 178" fill="none" xmlns="http://www.w3.org/2000/svg">
<path d="M27.7687 37.505V26.725L16.4937 2.855V2.69H26.1187C27.2553 5.66 28.1537 8.04333 28.8137 9.84C29.5103 11.6 30.042 12.9933 30.4087 14.02C30.812 15.01 31.1237 15.8167 31.3437 16.44C31.5637 17.0633 31.802 17.7233 32.0587 18.42H32.2787C32.5353 17.7233 32.7737 17.0633 32.9937 16.44C33.2137 15.8167 33.507 15.01 33.8737 14.02C34.277 12.9933 34.8087 11.6 35.4687 9.84C36.1653 8.04333 37.082 5.66 38.2187 2.69H47.8437V2.855L36.5687 26.725V37.505H27.7687ZM48.2358 24.305C48.2358 19.3917 49.2808 15.8533 51.3708 13.69C53.4608 11.5267 56.9992 10.445 61.9858 10.445C65.3225 10.445 67.9992 10.9217 70.0158 11.875C72.0325 12.8283 73.4808 14.3317 74.3608 16.385C75.2775 18.4017 75.7358 21.0417 75.7358 24.305C75.7358 27.5317 75.2775 30.1533 74.3608 32.17C73.4808 34.1867 72.0325 35.6717 70.0158 36.625C67.9992 37.5417 65.3225 38 61.9858 38C56.9992 38 53.4608 36.9367 51.3708 34.81C49.2808 32.6467 48.2358 29.145 48.2358 24.305ZM61.9858 30.465C64.1125 30.465 65.5425 30.0067 66.2758 29.09C67.0458 28.1367 67.4308 26.4867 67.4308 24.14C67.4308 21.9033 67.0458 20.3083 66.2758 19.355C65.5425 18.365 64.1125 17.87 61.9858 17.87C59.9325 17.87 58.5025 18.365 57.6958 19.355C56.9258 20.3083 56.5408 21.9033 56.5408 24.14C56.5408 26.4867 56.9258 28.1367 57.6958 29.09C58.5025 30.0067 59.9325 30.465 61.9858 30.465ZM88.2001 38C84.8268 38 82.4251 37.1017 80.9951 35.305C79.5651 33.5083 78.8501 30.9417 78.8501 27.605V10.72H87.6501L87.7051 25.46C87.7051 27.11 87.9984 28.2833 88.5851 28.98C89.1718 29.64 90.3634 29.97 92.1601 29.97C93.8834 29.97 95.0384 29.6767 95.6251 29.09C96.2484 28.4667 96.5784 27.4217 96.6151 25.955V10.72H105.415V37.505H97.0551L96.6151 34.48H96.4501C95.9734 35.5433 95.0018 36.405 93.5351 37.065C92.0684 37.6883 90.2901 38 88.2001 38ZM148.505 38C145.131 38 142.73 37.1017 141.3 35.305C139.87 33.5083 139.155 30.9417 139.155 27.605V10.72H147.955L148.01 25.46C148.01 27.11 148.303 28.2833 148.89 28.98C149.476 29.64 150.668 29.97 152.465 29.97C154.188 29.97 155.343 29.6767 155.93 29.09C156.553 28.4667 156.883 27.4217 156.92 25.955V10.72H165.72V37.505H157.36L156.92 34.48H156.755C156.278 35.5433 155.306 36.405 153.84 37.065C152.373 37.6883 150.595 38 148.505 38ZM198.477 22.93C198.477 27.88 197.469 31.6383 195.452 34.205C193.436 36.735 190.007 38 185.167 38C182.454 38 179.924 37.9083 177.577 37.725C175.267 37.505 173.232 37.2483 171.472 36.955L171.307 36.845V0.489998H180.107V14.845H180.327C180.841 13.525 181.684 12.4617 182.857 11.655C184.067 10.8483 185.772 10.445 187.972 10.445C194.976 10.445 198.477 14.6067 198.477 22.93ZM180.107 23.865V30.3C180.987 30.4467 182.014 30.52 183.187 30.52C184.911 30.52 186.249 30.3733 187.202 30.08C188.192 29.75 188.889 29.1267 189.292 28.21C189.696 27.2933 189.897 25.9733 189.897 24.25C189.897 22.0867 189.586 20.4917 188.962 19.465C188.339 18.4383 187.056 17.925 185.112 17.925C183.646 17.925 182.436 18.3833 181.482 19.3C180.566 20.18 180.107 21.7017 180.107 23.865ZM225.753 36.625C224.726 36.9917 223.296 37.3217 221.463 37.615C219.666 37.8717 217.521 38 215.028 38C211.875 38 209.18 37.5967 206.943 36.79C204.743 35.9467 203.075 34.535 201.938 32.555C200.801 30.5383 200.233 27.7517 200.233 24.195C200.233 19.355 201.333 15.8533 203.533 13.69C205.77 11.5267 209.216 10.445 213.873 10.445C217.21 10.445 219.831 10.9217 221.738 11.875C223.681 12.8283 225.056 14.185 225.863 15.945C226.706 17.6683 227.128 19.7217 227.128 22.105C227.128 22.8017 227.091 23.5533 227.018 24.36C226.981 25.1667 226.89 25.955 226.743 26.725L226.523 26.945H208.428C208.685 28.5583 209.436 29.6217 210.683 30.135C211.966 30.6483 214.038 30.905 216.898 30.905C218.805 30.905 220.381 30.8683 221.628 30.795C222.911 30.685 224.213 30.5383 225.533 30.355L225.753 30.52V36.625ZM219.483 21.17C219.483 20.29 219.336 19.5383 219.043 18.915C218.786 18.255 218.255 17.76 217.448 17.43C216.641 17.0633 215.45 16.88 213.873 16.88C211.563 16.88 210.041 17.2833 209.308 18.09C208.611 18.86 208.263 19.8867 208.263 21.17H219.483ZM46.9628 107.505H38.1628V70.49H46.9628V107.505ZM54.5578 105.69C53.3478 105.177 52.4678 104.517 51.9178 103.71C51.3678 102.903 51.0928 101.932 51.0928 100.795C51.0928 99.7683 51.3678 98.87 51.9178 98.1C52.5045 97.33 53.2745 96.725 54.2278 96.285V96.12C53.3112 95.3867 52.6328 94.47 52.1928 93.37C51.7895 92.2333 51.5878 90.9317 51.5878 89.465C51.5878 86.5317 52.5412 84.295 54.4478 82.755C56.3545 81.215 59.6545 80.445 64.3478 80.445C68.1978 80.445 71.1312 80.995 73.1478 82.095H73.4228C74.0095 81.1417 74.7612 80.3533 75.6778 79.73C76.5945 79.1067 77.7128 78.795 79.0328 78.795C79.4362 78.795 79.8028 78.8133 80.1328 78.85C80.4628 78.85 80.7745 78.8683 81.0678 78.905V85.67C80.3712 85.5233 79.5462 85.45 78.5928 85.45C77.8228 85.45 77.0895 85.5233 76.3928 85.67C76.7962 86.7333 76.9978 87.9983 76.9978 89.465C76.9978 92.6183 76.0445 94.8917 74.1378 96.285C72.2312 97.6783 68.9678 98.375 64.3478 98.375C63.2845 98.375 62.2945 98.3383 61.3778 98.265C60.4612 98.1917 59.6178 98.0817 58.8478 97.935C58.7012 98.2283 58.6278 98.5767 58.6278 98.98C58.6278 99.5667 58.8112 100.062 59.1778 100.465C59.5812 100.832 60.2595 101.015 61.2128 101.015H69.1328C72.5062 101.015 75.0178 101.547 76.6678 102.61C78.3545 103.673 79.1978 105.727 79.1978 108.77C79.1978 111.777 78.0245 114.068 75.6778 115.645C73.3312 117.222 69.3712 118.01 63.7978 118.01C59.2145 118.01 55.8778 117.387 53.7878 116.14C51.6978 114.93 50.6528 113.152 50.6528 110.805C50.6528 109.522 51.0012 108.458 51.6978 107.615C52.3945 106.735 53.3478 106.148 54.5578 105.855V105.69ZM64.3478 92.49C66.0712 92.49 67.2812 92.2883 67.9778 91.885C68.6745 91.445 69.0228 90.675 69.0228 89.575C69.0228 88.475 68.6745 87.6683 67.9778 87.155C67.2812 86.6417 66.0712 86.385 64.3478 86.385C62.5878 86.385 61.3595 86.6417 60.6628 87.155C59.9662 87.6683 59.6178 88.475 59.6178 89.575C59.6178 90.675 59.9662 91.445 60.6628 91.885C61.3595 92.2883 62.5878 92.49 64.3478 92.49ZM64.8428 111.52C66.7862 111.52 68.2162 111.428 69.1328 111.245C70.0495 111.062 70.6545 110.787 70.9478 110.42C71.2412 110.053 71.3878 109.595 71.3878 109.045C71.3878 108.422 71.2045 107.927 70.8378 107.56C70.4712 107.157 69.9212 106.955 69.1878 106.955H60.7728C60.0395 106.955 59.4895 107.157 59.1228 107.56C58.7562 107.927 58.5728 108.422 58.5728 109.045C58.5728 109.595 58.7195 110.053 59.0128 110.42C59.3428 110.787 59.9478 111.062 60.8278 111.245C61.7445 111.428 63.0828 111.52 64.8428 111.52ZM80.9126 94.305C80.9126 89.3917 81.9576 85.8533 84.0476 83.69C86.1376 81.5267 89.6759 80.445 94.6626 80.445C97.9993 80.445 100.676 80.9217 102.693 81.875C104.709 82.8283 106.158 84.3317 107.038 86.385C107.954 88.4017 108.413 91.0417 108.413 94.305C108.413 97.5317 107.954 100.153 107.038 102.17C106.158 104.187 104.709 105.672 102.693 106.625C100.676 107.542 97.9993 108 94.6626 108C89.6759 108 86.1376 106.937 84.0476 104.81C81.9576 102.647 80.9126 99.145 80.9126 94.305ZM94.6626 100.465C96.7893 100.465 98.2193 100.007 98.9526 99.09C99.7226 98.1367 100.108 96.4867 100.108 94.14C100.108 91.9033 99.7226 90.3083 98.9526 89.355C98.2193 88.365 96.7893 87.87 94.6626 87.87C92.6093 87.87 91.1793 88.365 90.3726 89.355C89.6026 90.3083 89.2176 91.9033 89.2176 94.14C89.2176 96.4867 89.6026 98.1367 90.3726 99.09C91.1793 100.007 92.6093 100.465 94.6626 100.465ZM120.877 107.505H112.077V80.72H119.227L119.942 86.22H120.107C120.437 84.1667 121.225 82.7 122.472 81.82C123.719 80.9033 125.57 80.445 128.027 80.445C129.017 80.445 129.915 80.5 130.722 80.61C131.529 80.6833 132.207 80.7567 132.757 80.83V89.41L132.647 89.52C132.06 89.3733 131.382 89.245 130.612 89.135C129.879 89.025 129.035 88.97 128.082 88.97C126.725 88.97 125.497 89.19 124.397 89.63C123.334 90.07 122.49 90.9317 121.867 92.215C121.28 93.4617 120.987 95.3317 120.987 97.825L120.877 107.505ZM143.928 70.765C144.038 72.085 144.093 73.185 144.093 74.065C144.093 74.5783 144.074 75.11 144.038 75.66C144.038 76.1733 144.001 76.76 143.928 77.42C143.158 77.5667 142.406 77.6767 141.673 77.75C140.939 77.8233 140.206 77.86 139.473 77.86C138.776 77.86 138.061 77.8233 137.328 77.75C136.631 77.6767 135.916 77.5667 135.183 77.42C135.109 76.7967 135.054 76.2283 135.018 75.715C134.981 75.165 134.963 74.6333 134.963 74.12C134.963 73.6433 134.981 73.13 135.018 72.58C135.054 72.03 135.109 71.425 135.183 70.765C135.916 70.5817 136.649 70.4717 137.383 70.435C138.153 70.3617 138.904 70.325 139.638 70.325C140.334 70.325 141.031 70.3617 141.728 70.435C142.461 70.4717 143.194 70.5817 143.928 70.765ZM143.928 107.505H135.128V80.72H143.928V107.505ZM149.567 99.475V87.925H146.267V80.775H150.392L152.042 74.23H158.367V80.775H164.362V87.925H158.367V97.55C158.367 98.5767 158.496 99.2917 158.752 99.695C159.009 100.062 159.596 100.245 160.512 100.245C161.099 100.245 161.722 100.227 162.382 100.19C163.042 100.117 163.702 100.043 164.362 99.97L164.527 100.08V107.23C162.767 107.743 160.439 108 157.542 108C154.646 108 152.592 107.34 151.382 106.02C150.172 104.7 149.567 102.518 149.567 99.475ZM177.281 107.505H168.481V70.545H177.281V85.615H177.446C177.959 83.965 178.894 82.7 180.251 81.82C181.644 80.9033 183.459 80.445 185.696 80.445C187.823 80.445 189.564 80.7933 190.921 81.49C192.314 82.1867 193.341 83.415 194.001 85.175C194.698 86.8983 195.046 89.3367 195.046 92.49V107.505H186.246L186.191 94.195C186.191 92.1417 185.879 90.675 185.256 89.795C184.633 88.915 183.459 88.475 181.736 88.475C180.196 88.475 179.078 88.8783 178.381 89.685C177.684 90.4917 177.318 91.8483 177.281 93.755V107.505ZM233.305 80.445C236.018 80.445 238.163 81.3433 239.74 83.14C241.353 84.9367 242.16 88.0533 242.16 92.49V107.505H233.36L233.305 93.59C233.305 91.7933 233.03 90.4917 232.48 89.685C231.967 88.8783 230.94 88.475 229.4 88.475C227.86 88.475 226.815 88.8783 226.265 89.685C225.752 90.4917 225.495 91.7933 225.495 93.59V107.505H216.695L216.64 93.59C216.64 91.7933 216.365 90.4917 215.815 89.685C215.302 88.8783 214.275 88.475 212.735 88.475C211.195 88.475 210.15 88.8783 209.6 89.685C209.087 90.4917 208.83 91.7933 208.83 93.59V107.505H200.03V80.72H208.39L208.83 85.615H208.995C209.472 84.0017 210.297 82.7367 211.47 81.82C212.68 80.9033 214.385 80.445 216.585 80.445C218.785 80.445 220.508 80.9033 221.755 81.82C223.038 82.7367 223.863 84.0017 224.23 85.615H224.395C224.872 83.965 225.788 82.7 227.145 81.82C228.538 80.9033 230.592 80.445 233.305 80.445ZM69.4882 177.505H60.6882V150.72H67.8382L68.5532 156.22H68.7182C69.0482 154.167 69.8365 152.7 71.0832 151.82C72.3299 150.903 74.1815 150.445 76.6382 150.445C77.6282 150.445 78.5265 150.5 79.3332 150.61C80.1399 150.683 80.8182 150.757 81.3682 150.83V159.41L81.2582 159.52C80.6715 159.373 79.9932 159.245 79.2232 159.135C78.4899 159.025 77.6465 158.97 76.6932 158.97C75.3365 158.97 74.1082 159.19 73.0082 159.63C71.9449 160.07 71.1015 160.932 70.4782 162.215C69.8915 163.462 69.5982 165.332 69.5982 167.825L69.4882 177.505ZM107.829 176.625C106.802 176.992 105.372 177.322 103.539 177.615C101.742 177.872 99.5974 178 97.1041 178C93.9507 178 91.2557 177.597 89.0191 176.79C86.8191 175.947 85.1507 174.535 84.0141 172.555C82.8774 170.538 82.3091 167.752 82.3091 164.195C82.3091 159.355 83.4091 155.853 85.6091 153.69C87.8457 151.527 91.2924 150.445 95.9491 150.445C99.2857 150.445 101.907 150.922 103.814 151.875C105.757 152.828 107.132 154.185 107.939 155.945C108.782 157.668 109.204 159.722 109.204 162.105C109.204 162.802 109.167 163.553 109.094 164.36C109.057 165.167 108.966 165.955 108.819 166.725L108.599 166.945H90.5041C90.7607 168.558 91.5124 169.622 92.7591 170.135C94.0424 170.648 96.1141 170.905 98.9741 170.905C100.881 170.905 102.457 170.868 103.704 170.795C104.987 170.685 106.289 170.538 107.609 170.355L107.829 170.52V176.625ZM101.559 161.17C101.559 160.29 101.412 159.538 101.119 158.915C100.862 158.255 100.331 157.76 99.5241 157.43C98.7174 157.063 97.5257 156.88 95.9491 156.88C93.6391 156.88 92.1174 157.283 91.3841 158.09C90.6874 158.86 90.3391 159.887 90.3391 161.17H101.559ZM123.058 150.445C126.578 150.445 129.419 150.812 131.583 151.545C133.746 152.278 135.323 153.635 136.313 155.615C137.339 157.558 137.853 160.382 137.853 164.085V177.505H129.878L129.603 174.975H129.438C128.741 175.892 127.659 176.625 126.193 177.175C124.726 177.725 122.819 178 120.473 178C114.129 178 110.958 175.03 110.958 169.09C110.958 166.56 111.783 164.58 113.433 163.15C115.119 161.683 117.759 160.95 121.353 160.95H129.493C129.236 159.41 128.576 158.383 127.513 157.87C126.449 157.32 124.634 157.045 122.068 157.045C120.454 157.045 118.859 157.173 117.283 157.43C115.743 157.65 114.386 157.907 113.213 158.2L113.048 158.09L113.103 151.71C113.836 151.49 114.771 151.288 115.908 151.105C117.044 150.885 118.236 150.72 119.483 150.61C120.766 150.5 121.958 150.445 123.058 150.445ZM122.728 171.51C125.001 171.51 126.706 171.235 127.843 170.685C128.979 170.098 129.566 169.182 129.603 167.935V166.56H123.388C121.774 166.56 120.638 166.798 119.978 167.275C119.354 167.715 119.043 168.32 119.043 169.09C119.043 170.007 119.373 170.648 120.033 171.015C120.693 171.345 121.591 171.51 122.728 171.51ZM151.405 177.505H142.605V140.49H151.405V162.05H151.515L158.445 150.72H168.125V150.94L159.985 163.59V163.81L169.445 177.505H159.325L151.57 165.13L151.405 165.075V177.505ZM194.741 176.625C193.715 176.992 192.285 177.322 190.451 177.615C188.655 177.872 186.51 178 184.016 178C180.863 178 178.168 177.597 175.931 176.79C173.731 175.947 172.063 174.535 170.926 172.555C169.79 170.538 169.221 167.752 169.221 164.195C169.221 159.355 170.321 155.853 172.521 153.69C174.758 151.527 178.205 150.445 182.861 150.445C186.198 150.445 188.82 150.922 190.726 151.875C192.67 152.828 194.045 154.185 194.851 155.945C195.695 157.668 196.116 159.722 196.116 162.105C196.116 162.802 196.08 163.553 196.006 164.36C195.97 165.167 195.878 165.955 195.731 166.725L195.511 166.945H177.416C177.673 168.558 178.425 169.622 179.671 170.135C180.955 170.648 183.026 170.905 185.886 170.905C187.793 170.905 189.37 170.868 190.616 170.795C191.9 170.685 193.201 170.538 194.521 170.355L194.741 170.52V176.625ZM188.471 161.17C188.471 160.29 188.325 159.538 188.031 158.915C187.775 158.255 187.243 157.76 186.436 157.43C185.63 157.063 184.438 156.88 182.861 156.88C180.551 156.88 179.03 157.283 178.296 158.09C177.6 158.86 177.251 159.887 177.251 161.17H188.471ZM208.595 177.505H199.795V150.72H206.945L207.66 156.22H207.825C208.155 154.167 208.943 152.7 210.19 151.82C211.436 150.903 213.288 150.445 215.745 150.445C216.735 150.445 217.633 150.5 218.44 150.61C219.246 150.683 219.925 150.757 220.475 150.83V159.41L220.365 159.52C219.778 159.373 219.1 159.245 218.33 159.135C217.596 159.025 216.753 158.97 215.8 158.97C214.443 158.97 213.215 159.19 212.115 159.63C211.051 160.07 210.208 160.932 209.585 162.215C208.998 163.462 208.705 165.332 208.705 167.825L208.595 177.505Z" fill="#EA1D5D"/>
<path d="M118.153 37.505V10.115H108.253V2.69H136.853V10.115H126.953V37.505H118.153ZM35.2913 107.34V107.505H25.9413C25.6846 106.625 25.373 105.617 25.0063 104.48C24.6763 103.343 24.3096 102.133 23.9063 100.85H12.0263C11.293 103.417 10.6146 105.635 9.99131 107.505H0.641309V107.395L11.9163 72.69H24.0163L35.2913 107.34ZM17.8563 78.96C17.4896 80.83 16.958 83.1033 16.2613 85.78C15.5646 88.4567 14.8313 91.1883 14.0613 93.975H21.9263C21.1196 91.1883 20.368 88.4567 19.6713 85.78C18.9746 83.1033 18.443 80.83 18.0763 78.96H17.8563ZM56.7395 168.595C56.7395 171.528 55.8228 173.747 53.9895 175.25C52.1928 176.753 49.0028 177.505 44.4195 177.505H27.2595V142.69H29.4045H43.8695C46.9128 142.69 49.2778 143.02 50.9645 143.68C52.6878 144.303 53.8978 145.238 54.5945 146.485C55.2911 147.732 55.6395 149.29 55.6395 151.16C55.6395 153.727 55.0161 155.725 53.7695 157.155C52.5595 158.548 50.2678 159.392 46.8945 159.685V159.85C49.3878 160.033 51.3495 160.455 52.7795 161.115C54.2095 161.738 55.2178 162.655 55.8045 163.865C56.4278 165.075 56.7395 166.652 56.7395 168.595ZM41.4495 149.62H36.0595V156.44H41.4495C43.2461 156.44 44.5478 156.22 45.3545 155.78C46.1611 155.303 46.5645 154.387 46.5645 153.03C46.5645 151.71 46.1611 150.812 45.3545 150.335C44.5478 149.858 43.2461 149.62 41.4495 149.62ZM42.5495 163.645H36.0595V170.63H42.5495C44.3461 170.63 45.6478 170.392 46.4545 169.915C47.2611 169.402 47.6645 168.467 47.6645 167.11C47.6645 165.717 47.2611 164.8 46.4545 164.36C45.6478 163.883 44.3461 163.645 42.5495 163.645Z" fill="#21243D"/>
</svg>
