<svg width="50" height="50" viewBox="0 0 50 50" fill="none" xmlns="http://www.w3.org/2000/svg">
<path d="M31.4284 25.9762C30.8893 26.65 29.906 26.7593 29.2322 26.2202L26.5625 24.0845V31.2501C26.5625 32.113 25.8629 32.8126 25 32.8126C24.137 32.8126 23.4375 32.113 23.4375 31.2501V24.0844L20.7677 26.2202C20.0938 26.7593 19.1106 26.65 18.5715 25.9762C18.0324 25.3023 18.1417 24.3191 18.8155 23.78L24.0183 19.6178C24.2834 19.4034 24.62 19.274 24.9868 19.271C24.9912 19.2709 24.9956 19.2709 25 19.2709L25.005 19.2709C25.3782 19.2721 25.7205 19.4041 25.9886 19.6234L31.1843 23.78C31.8582 24.3191 31.9674 25.3023 31.4284 25.9762Z" fill="black"/>
<path fill-rule="evenodd" clip-rule="evenodd" d="M17.4584 14.9876C19.462 11.8745 22.9593 9.80908 26.9415 9.80908C32.9425 9.80908 37.8481 14.4996 38.1919 20.4144C38.324 20.4089 38.4567 20.4061 38.5901 20.4061C43.7419 20.4061 47.9184 24.5825 47.9184 29.7343C47.9184 34.8862 43.7419 39.0626 38.5901 39.0626H14.3221C7.56189 39.0626 2.08167 33.5824 2.08167 26.8222C2.08167 20.062 7.56189 14.5818 14.3221 14.5818C15.4047 14.5818 16.4562 14.7227 17.4584 14.9876ZM26.9415 12.9341C23.7116 12.9341 20.9179 14.8139 19.6003 17.5462C19.246 18.2808 18.3863 18.6194 17.6262 18.3236C16.6039 17.9258 15.4904 17.7068 14.3221 17.7068C9.28778 17.7068 5.20666 21.7879 5.20666 26.8222C5.20666 31.8565 9.28778 35.9376 14.3221 35.9376H38.5901C42.0161 35.9376 44.7934 33.1603 44.7934 29.7343C44.7934 26.3084 42.0161 23.5311 38.5901 23.5311C38.0326 23.5311 37.4947 23.6042 36.9842 23.7406C36.4837 23.8742 35.9496 23.7512 35.5581 23.4121C35.1665 23.073 34.9685 22.5619 35.0293 22.0475C35.0668 21.7304 35.0862 21.4072 35.0862 21.0788C35.0862 16.5806 31.4396 12.9341 26.9415 12.9341Z" fill="black"/>
</svg>
