<svg width="799" height="56" viewBox="0 0 799 56" fill="none" xmlns="http://www.w3.org/2000/svg">
<path d="M13.8388 43.424V30.88L0.71875 3.104V2.912H11.9188C13.2414 6.368 14.2868 9.14133 15.0548 11.232C15.8654 13.28 16.4841 14.9013 16.9108 16.096C17.3801 17.248 17.7428 18.1867 17.9988 18.912C18.2548 19.6373 18.5321 20.4053 18.8308 21.216H19.0868C19.3854 20.4053 19.6628 19.6373 19.9188 18.912C20.1748 18.1867 20.5161 17.248 20.9428 16.096C21.4121 14.9013 22.0308 13.28 22.7988 11.232C23.6094 9.14133 24.6761 6.368 25.9988 2.912H37.1988V3.104L24.0788 30.88V43.424H13.8388ZM37.8188 28.064C37.8188 22.3467 39.0348 18.2293 41.4668 15.712C43.8988 13.1947 48.0161 11.936 53.8188 11.936C57.7014 11.936 60.8161 12.4907 63.1628 13.6C65.5094 14.7093 67.1948 16.4587 68.2188 18.848C69.2854 21.1947 69.8188 24.2667 69.8188 28.064C69.8188 31.8187 69.2854 34.8693 68.2188 37.216C67.1948 39.5627 65.5094 41.2907 63.1628 42.4C60.8161 43.4667 57.7014 44 53.8188 44C48.0161 44 43.8988 42.7627 41.4668 40.288C39.0348 37.7707 37.8188 33.696 37.8188 28.064ZM53.8188 35.232C56.2934 35.232 57.9574 34.6987 58.8108 33.632C59.7068 32.5227 60.1548 30.6027 60.1548 27.872C60.1548 25.2693 59.7068 23.4133 58.8108 22.304C57.9574 21.152 56.2934 20.576 53.8188 20.576C51.4294 20.576 49.7654 21.152 48.8268 22.304C47.9308 23.4133 47.4828 25.2693 47.4828 27.872C47.4828 30.6027 47.9308 32.5227 48.8268 33.632C49.7654 34.6987 51.4294 35.232 53.8188 35.232ZM84.4863 44C80.5609 44 77.7663 42.9547 76.1023 40.864C74.4383 38.7733 73.6063 35.7867 73.6063 31.904V12.256H83.8463L83.9103 29.408C83.9103 31.328 84.2516 32.6933 84.9343 33.504C85.6169 34.272 87.0036 34.656 89.0943 34.656C91.0996 34.656 92.4436 34.3147 93.1263 33.632C93.8516 32.9067 94.2356 31.6907 94.2783 29.984V12.256H104.518V43.424H94.7903L94.2783 39.904H94.0863C93.5316 41.1413 92.4009 42.144 90.6943 42.912C88.9876 43.6373 86.9183 44 84.4863 44ZM154.986 44C151.061 44 148.266 42.9547 146.602 40.864C144.938 38.7733 144.106 35.7867 144.106 31.904V12.256H154.346L154.41 29.408C154.41 31.328 154.752 32.6933 155.434 33.504C156.117 34.272 157.504 34.656 159.594 34.656C161.6 34.656 162.944 34.3147 163.626 33.632C164.352 32.9067 164.736 31.6907 164.778 29.984V12.256H175.018V43.424H165.29L164.778 39.904H164.586C164.032 41.1413 162.901 42.144 161.194 42.912C159.488 43.6373 157.418 44 154.986 44ZM213.3 26.464C213.3 32.224 212.126 36.5973 209.78 39.584C207.433 42.528 203.444 44 197.812 44C194.654 44 191.71 43.8933 188.98 43.68C186.292 43.424 183.924 43.1253 181.876 42.784L181.684 42.656V0.351997H191.924V17.056H192.18C192.777 15.52 193.758 14.2827 195.124 13.344C196.532 12.4053 198.516 11.936 201.076 11.936C209.225 11.936 213.3 16.7787 213.3 26.464ZM191.924 27.552V35.04C192.948 35.2107 194.142 35.296 195.508 35.296C197.513 35.296 199.07 35.1253 200.18 34.784C201.332 34.4 202.142 33.6747 202.612 32.608C203.081 31.5413 203.316 30.0053 203.316 28C203.316 25.4827 202.953 23.6267 202.228 22.432C201.502 21.2373 200.009 20.64 197.748 20.64C196.041 20.64 194.633 21.1733 193.524 22.24C192.457 23.264 191.924 25.0347 191.924 27.552ZM245.202 42.4C244.008 42.8267 242.344 43.2107 240.21 43.552C238.12 43.8507 235.624 44 232.722 44C229.053 44 225.917 43.5307 223.314 42.592C220.754 41.6107 218.813 39.968 217.49 37.664C216.168 35.3173 215.506 32.0747 215.506 27.936C215.506 22.304 216.786 18.2293 219.346 15.712C221.949 13.1947 225.96 11.936 231.378 11.936C235.261 11.936 238.312 12.4907 240.53 13.6C242.792 14.7093 244.392 16.288 245.33 18.336C246.312 20.3413 246.802 22.7307 246.802 25.504C246.802 26.3147 246.76 27.1893 246.674 28.128C246.632 29.0667 246.525 29.984 246.354 30.88L246.098 31.136H225.042C225.341 33.0133 226.216 34.2507 227.666 34.848C229.16 35.4453 231.57 35.744 234.898 35.744C237.117 35.744 238.952 35.7013 240.402 35.616C241.896 35.488 243.41 35.3173 244.946 35.104L245.202 35.296V42.4ZM237.906 24.416C237.906 23.392 237.736 22.5173 237.394 21.792C237.096 21.024 236.477 20.448 235.538 20.064C234.6 19.6373 233.213 19.424 231.378 19.424C228.69 19.424 226.92 19.8933 226.066 20.832C225.256 21.728 224.85 22.9227 224.85 24.416H237.906ZM320.299 43.424H310.059V0.351997H320.299V43.424ZM329.3 41.312C327.892 40.7147 326.868 39.9467 326.228 39.008C325.588 38.0693 325.268 36.9387 325.268 35.616C325.268 34.4213 325.588 33.376 326.228 32.48C326.911 31.584 327.807 30.88 328.916 30.368V30.176C327.85 29.3227 327.06 28.256 326.548 26.976C326.079 25.6533 325.844 24.1387 325.844 22.432C325.844 19.0187 326.954 16.416 329.172 14.624C331.391 12.832 335.231 11.936 340.692 11.936C345.172 11.936 348.586 12.576 350.932 13.856H351.252C351.935 12.7467 352.81 11.8293 353.876 11.104C354.943 10.3787 356.244 10.016 357.78 10.016C358.25 10.016 358.676 10.0373 359.06 10.08C359.444 10.08 359.807 10.1013 360.148 10.144V18.016C359.338 17.8453 358.378 17.76 357.268 17.76C356.372 17.76 355.519 17.8453 354.708 18.016C355.178 19.2533 355.412 20.7253 355.412 22.432C355.412 26.1013 354.303 28.7467 352.084 30.368C349.866 31.9893 346.068 32.8 340.692 32.8C339.455 32.8 338.303 32.7573 337.236 32.672C336.17 32.5867 335.188 32.4587 334.292 32.288C334.122 32.6293 334.036 33.0347 334.036 33.504C334.036 34.1867 334.25 34.7627 334.676 35.232C335.146 35.6587 335.935 35.872 337.044 35.872H346.26C350.186 35.872 353.108 36.4907 355.028 37.728C356.991 38.9653 357.972 41.3547 357.972 44.896C357.972 48.3947 356.607 51.0613 353.876 52.896C351.146 54.7307 346.538 55.648 340.052 55.648C334.719 55.648 330.836 54.9227 328.404 53.472C325.972 52.064 324.756 49.9947 324.756 47.264C324.756 45.7707 325.162 44.5333 325.972 43.552C326.783 42.528 327.892 41.8453 329.3 41.504V41.312ZM340.692 25.952C342.698 25.952 344.106 25.7173 344.916 25.248C345.727 24.736 346.132 23.84 346.132 22.56C346.132 21.28 345.727 20.3413 344.916 19.744C344.106 19.1467 342.698 18.848 340.692 18.848C338.644 18.848 337.215 19.1467 336.404 19.744C335.594 20.3413 335.188 21.28 335.188 22.56C335.188 23.84 335.594 24.736 336.404 25.248C337.215 25.7173 338.644 25.952 340.692 25.952ZM341.268 48.096C343.53 48.096 345.194 47.9893 346.26 47.776C347.327 47.5627 348.031 47.2427 348.372 46.816C348.714 46.3893 348.884 45.856 348.884 45.216C348.884 44.4907 348.671 43.9147 348.244 43.488C347.818 43.0187 347.178 42.784 346.324 42.784H336.532C335.679 42.784 335.039 43.0187 334.612 43.488C334.186 43.9147 333.972 44.4907 333.972 45.216C333.972 45.856 334.143 46.3893 334.484 46.816C334.868 47.2427 335.572 47.5627 336.596 47.776C337.663 47.9893 339.22 48.096 341.268 48.096ZM360.131 28.064C360.131 22.3467 361.347 18.2293 363.779 15.712C366.211 13.1947 370.329 11.936 376.131 11.936C380.014 11.936 383.129 12.4907 385.475 13.6C387.822 14.7093 389.507 16.4587 390.531 18.848C391.598 21.1947 392.131 24.2667 392.131 28.064C392.131 31.8187 391.598 34.8693 390.531 37.216C389.507 39.5627 387.822 41.2907 385.475 42.4C383.129 43.4667 380.014 44 376.131 44C370.329 44 366.211 42.7627 363.779 40.288C361.347 37.7707 360.131 33.696 360.131 28.064ZM376.131 35.232C378.606 35.232 380.27 34.6987 381.123 33.632C382.019 32.5227 382.467 30.6027 382.467 27.872C382.467 25.2693 382.019 23.4133 381.123 22.304C380.27 21.152 378.606 20.576 376.131 20.576C373.742 20.576 372.078 21.152 371.139 22.304C370.243 23.4133 369.795 25.2693 369.795 27.872C369.795 30.6027 370.243 32.5227 371.139 33.632C372.078 34.6987 373.742 35.232 376.131 35.232ZM406.799 43.424H396.559V12.256H404.879L405.711 18.656H405.903C406.287 16.2667 407.204 14.56 408.655 13.536C410.105 12.4693 412.26 11.936 415.119 11.936C416.271 11.936 417.316 12 418.255 12.128C419.193 12.2133 419.983 12.2987 420.623 12.384V22.368L420.495 22.496C419.812 22.3253 419.023 22.176 418.127 22.048C417.273 21.92 416.292 21.856 415.183 21.856C413.604 21.856 412.175 22.112 410.895 22.624C409.657 23.136 408.676 24.1387 407.951 25.632C407.268 27.0827 406.927 29.2587 406.927 32.16L406.799 43.424ZM433.785 0.671997C433.913 2.208 433.977 3.488 433.977 4.512C433.977 5.10933 433.956 5.728 433.913 6.368C433.913 6.96533 433.871 7.648 433.785 8.416C432.889 8.58666 432.015 8.71466 431.161 8.8C430.308 8.88533 429.455 8.928 428.601 8.928C427.791 8.928 426.959 8.88533 426.105 8.8C425.295 8.71466 424.463 8.58666 423.609 8.416C423.524 7.69066 423.46 7.02933 423.417 6.432C423.375 5.792 423.353 5.17333 423.353 4.576C423.353 4.02133 423.375 3.424 423.417 2.784C423.46 2.144 423.524 1.44 423.609 0.671997C424.463 0.458664 425.316 0.330664 426.169 0.287998C427.065 0.202663 427.94 0.159996 428.793 0.159996C429.604 0.159996 430.415 0.202663 431.225 0.287998C432.079 0.330664 432.932 0.458664 433.785 0.671997ZM433.785 43.424H423.545V12.256H433.785V43.424ZM440.511 34.08V20.64H436.671V12.32H441.471L443.391 4.704H450.751V12.32H457.727V20.64H450.751V31.84C450.751 33.0347 450.901 33.8667 451.199 34.336C451.498 34.7627 452.181 34.976 453.247 34.976C453.93 34.976 454.655 34.9547 455.423 34.912C456.191 34.8267 456.959 34.7413 457.727 34.656L457.919 34.784V43.104C455.871 43.7013 453.162 44 449.791 44C446.421 44 444.031 43.232 442.623 41.696C441.215 40.16 440.511 37.6213 440.511 34.08ZM472.924 43.424H462.684V0.415997H472.924V17.952H473.116C473.713 16.032 474.801 14.56 476.38 13.536C478.001 12.4693 480.113 11.936 482.716 11.936C485.19 11.936 487.217 12.3413 488.796 13.152C490.417 13.9627 491.612 15.392 492.38 17.44C493.19 19.4453 493.596 22.2827 493.596 25.952V43.424H483.356L483.292 27.936C483.292 25.5467 482.929 23.84 482.204 22.816C481.478 21.792 480.113 21.28 478.108 21.28C476.316 21.28 475.014 21.7493 474.204 22.688C473.393 23.6267 472.966 25.2053 472.924 27.424V43.424ZM538.279 11.936C541.436 11.936 543.932 12.9813 545.767 15.072C547.644 17.1627 548.583 20.7893 548.583 25.952V43.424H538.343L538.279 27.232C538.279 25.1413 537.959 23.6267 537.319 22.688C536.721 21.7493 535.527 21.28 533.735 21.28C531.943 21.28 530.727 21.7493 530.087 22.688C529.489 23.6267 529.191 25.1413 529.191 27.232V43.424H518.951L518.887 27.232C518.887 25.1413 518.567 23.6267 517.927 22.688C517.329 21.7493 516.135 21.28 514.343 21.28C512.551 21.28 511.335 21.7493 510.695 22.688C510.097 23.6267 509.799 25.1413 509.799 27.232V43.424H499.559V12.256H509.287L509.799 17.952H509.991C510.545 16.0747 511.505 14.6027 512.871 13.536C514.279 12.4693 516.263 11.936 518.823 11.936C521.383 11.936 523.388 12.4693 524.839 13.536C526.332 14.6027 527.292 16.0747 527.719 17.952H527.911C528.465 16.032 529.532 14.56 531.111 13.536C532.732 12.4693 535.121 11.936 538.279 11.936ZM622.111 43.424H611.871V12.256H620.191L621.023 18.656H621.215C621.599 16.2667 622.517 14.56 623.967 13.536C625.418 12.4693 627.573 11.936 630.431 11.936C631.583 11.936 632.629 12 633.567 12.128C634.506 12.2133 635.295 12.2987 635.935 12.384V22.368L635.807 22.496C635.125 22.3253 634.335 22.176 633.439 22.048C632.586 21.92 631.605 21.856 630.495 21.856C628.917 21.856 627.487 22.112 626.207 22.624C624.97 23.136 623.989 24.1387 623.263 25.632C622.581 27.0827 622.239 29.2587 622.239 32.16L622.111 43.424ZM666.89 42.4C665.695 42.8267 664.031 43.2107 661.898 43.552C659.807 43.8507 657.311 44 654.41 44C650.74 44 647.604 43.5307 645.002 42.592C642.442 41.6107 640.5 39.968 639.178 37.664C637.855 35.3173 637.194 32.0747 637.194 27.936C637.194 22.304 638.474 18.2293 641.034 15.712C643.636 13.1947 647.647 11.936 653.066 11.936C656.948 11.936 659.999 12.4907 662.218 13.6C664.479 14.7093 666.079 16.288 667.018 18.336C667.999 20.3413 668.49 22.7307 668.49 25.504C668.49 26.3147 668.447 27.1893 668.362 28.128C668.319 29.0667 668.212 29.984 668.042 30.88L667.786 31.136H646.73C647.028 33.0133 647.903 34.2507 649.354 34.848C650.847 35.4453 653.258 35.744 656.586 35.744C658.804 35.744 660.639 35.7013 662.09 35.616C663.583 35.488 665.098 35.3173 666.634 35.104L666.89 35.296V42.4ZM659.594 24.416C659.594 23.392 659.423 22.5173 659.082 21.792C658.783 21.024 658.164 20.448 657.226 20.064C656.287 19.6373 654.9 19.424 653.066 19.424C650.378 19.424 648.607 19.8933 647.754 20.832C646.943 21.728 646.538 22.9227 646.538 24.416H659.594ZM684.774 11.936C688.87 11.936 692.176 12.3627 694.694 13.216C697.211 14.0693 699.046 15.648 700.198 17.952C701.392 20.2133 701.99 23.4987 701.99 27.808V43.424H692.71L692.39 40.48H692.198C691.387 41.5467 690.128 42.4 688.422 43.04C686.715 43.68 684.496 44 681.766 44C674.384 44 670.694 40.544 670.694 33.632C670.694 30.688 671.654 28.384 673.574 26.72C675.536 25.0133 678.608 24.16 682.79 24.16H692.262C691.963 22.368 691.195 21.1733 689.958 20.576C688.72 19.936 686.608 19.616 683.622 19.616C681.744 19.616 679.888 19.7653 678.054 20.064C676.262 20.32 674.683 20.6187 673.318 20.96L673.126 20.832L673.19 13.408C674.043 13.152 675.131 12.9173 676.454 12.704C677.776 12.448 679.163 12.256 680.614 12.128C682.107 12 683.494 11.936 684.774 11.936ZM684.39 36.448C687.035 36.448 689.019 36.128 690.342 35.488C691.664 34.8053 692.347 33.7387 692.39 32.288V30.688H685.158C683.28 30.688 681.958 30.9653 681.19 31.52C680.464 32.032 680.102 32.736 680.102 33.632C680.102 34.6987 680.486 35.4453 681.254 35.872C682.022 36.256 683.067 36.448 684.39 36.448ZM717.924 43.424H707.684V0.351997H717.924V25.44H718.052L726.116 12.256H737.38V12.512L727.908 27.232V27.488L738.916 43.424H727.14L718.116 29.024L717.924 28.96V43.424ZM768.515 42.4C767.32 42.8267 765.656 43.2107 763.523 43.552C761.432 43.8507 758.936 44 756.035 44C752.365 44 749.229 43.5307 746.627 42.592C744.067 41.6107 742.125 39.968 740.803 37.664C739.48 35.3173 738.819 32.0747 738.819 27.936C738.819 22.304 740.099 18.2293 742.659 15.712C745.261 13.1947 749.272 11.936 754.691 11.936C758.573 11.936 761.624 12.4907 763.843 13.6C766.104 14.7093 767.704 16.288 768.643 18.336C769.624 20.3413 770.115 22.7307 770.115 25.504C770.115 26.3147 770.072 27.1893 769.987 28.128C769.944 29.0667 769.837 29.984 769.667 30.88L769.411 31.136H748.355C748.653 33.0133 749.528 34.2507 750.979 34.848C752.472 35.4453 754.883 35.744 758.211 35.744C760.429 35.744 762.264 35.7013 763.715 35.616C765.208 35.488 766.723 35.3173 768.259 35.104L768.515 35.296V42.4ZM761.219 24.416C761.219 23.392 761.048 22.5173 760.707 21.792C760.408 21.024 759.789 20.448 758.851 20.064C757.912 19.6373 756.525 19.424 754.691 19.424C752.003 19.424 750.232 19.8933 749.379 20.832C748.568 21.728 748.163 22.9227 748.163 24.416H761.219ZM784.799 43.424H774.559V12.256H782.879L783.711 18.656H783.903C784.287 16.2667 785.204 14.56 786.655 13.536C788.105 12.4693 790.26 11.936 793.119 11.936C794.271 11.936 795.316 12 796.255 12.128C797.193 12.2133 797.983 12.2987 798.623 12.384V22.368L798.495 22.496C797.812 22.3253 797.023 22.176 796.127 22.048C795.273 21.92 794.292 21.856 793.183 21.856C791.604 21.856 790.175 22.112 788.895 22.624C787.657 23.136 786.676 24.1387 785.951 25.632C785.268 27.0827 784.927 29.2587 784.927 32.16L784.799 43.424Z" fill="#EA1D5D"/>
<path d="M119.504 43.424V11.552H107.984V2.912H141.264V11.552H129.744V43.424H119.504ZM306.554 43.232V43.424H295.674C295.375 42.4 295.012 41.2267 294.586 39.904C294.202 38.5813 293.775 37.1733 293.306 35.68H279.482C278.628 38.6667 277.839 41.248 277.114 43.424H266.234V43.296L279.354 2.912H293.434L306.554 43.232ZM286.266 10.208C285.839 12.384 285.22 15.0293 284.41 18.144C283.599 21.2587 282.746 24.4373 281.85 27.68H291.002C290.063 24.4373 289.188 21.2587 288.378 18.144C287.567 15.0293 286.948 12.384 286.522 10.208H286.266ZM607.113 33.056C607.113 36.4693 606.046 39.0507 603.913 40.8C601.822 42.5493 598.11 43.424 592.777 43.424H572.809V2.912H575.305H592.137C595.678 2.912 598.43 3.296 600.393 4.064C602.398 4.78933 603.806 5.87733 604.617 7.328C605.427 8.77866 605.833 10.592 605.833 12.768C605.833 15.7547 605.107 18.08 603.657 19.744C602.249 21.3653 599.582 22.3467 595.657 22.688V22.88C598.558 23.0933 600.841 23.584 602.505 24.352C604.169 25.0773 605.342 26.144 606.025 27.552C606.75 28.96 607.113 30.7947 607.113 33.056ZM589.321 10.976H583.049V18.912H589.321C591.411 18.912 592.926 18.656 593.865 18.144C594.803 17.5893 595.273 16.5227 595.273 14.944C595.273 13.408 594.803 12.3627 593.865 11.808C592.926 11.2533 591.411 10.976 589.321 10.976ZM590.601 27.296H583.049V35.424H590.601C592.691 35.424 594.206 35.1467 595.145 34.592C596.083 33.9947 596.553 32.9067 596.553 31.328C596.553 29.7067 596.083 28.64 595.145 28.128C594.206 27.5733 592.691 27.296 590.601 27.296Z" fill="#21243D"/>
</svg>
