<svg width="312" height="42" viewBox="0 0 312 42" fill="none" xmlns="http://www.w3.org/2000/svg">
<rect width="304" height="38" rx="19" transform="matrix(-1 0 0 1 304 0)" fill="#FEF01B"/>
<path d="M16.8398 18.585V22.65H18.0698V18.585H16.8398ZM21.8498 18.585V22.65H23.0948V18.585H21.8498ZM13.8398 22.41V23.445H26.1248V22.41H13.8398ZM19.9598 12.465C17.0798 12.465 15.0248 13.83 15.0248 15.96C15.0248 18.075 17.0798 19.44 19.9598 19.44C22.8248 19.44 24.8798 18.075 24.8798 15.96C24.8798 13.83 22.8248 12.465 19.9598 12.465ZM19.9598 13.455C22.1348 13.455 23.6798 14.445 23.6798 15.96C23.6798 17.46 22.1348 18.45 19.9598 18.45C17.7848 18.45 16.2248 17.46 16.2248 15.96C16.2248 14.445 17.7848 13.455 19.9598 13.455ZM32.9487 12.75V13.155C32.9487 14.685 30.7437 15.9 28.3137 16.17L28.7637 17.16C31.5687 16.815 34.0587 15.33 34.0587 13.155V12.75H32.9487ZM33.4737 12.75V13.155C33.4737 15.33 35.9487 16.815 38.7537 17.16L39.2037 16.17C36.7737 15.9 34.5687 14.685 34.5687 13.155V12.75H33.4737ZM28.7487 12.195V13.2H38.7837V12.195H28.7487ZM29.1237 20.415V24.99H38.3787V20.415H29.1237ZM37.1637 21.42V23.985H30.3537V21.42H37.1637ZM27.6237 17.955V18.975H39.8787V17.955H27.6237ZM48.7913 19.995V25.17H50.0663V19.995H48.7913ZM53.4563 19.995V25.17H54.7313V19.995H53.4563ZM45.6413 19.32V20.355H57.9413V19.32H45.6413ZM51.7613 12.15C48.9413 12.15 47.0213 13.29 47.0213 15.105C47.0213 16.905 48.9413 18.06 51.7613 18.06C54.5963 18.06 56.5013 16.905 56.5013 15.105C56.5013 13.29 54.5963 12.15 51.7613 12.15ZM51.7613 13.155C53.8313 13.155 55.2263 13.92 55.2263 15.105C55.2263 16.29 53.8313 17.055 51.7613 17.055C49.6913 17.055 48.2813 16.29 48.2813 15.105C48.2813 13.92 49.6913 13.155 51.7613 13.155ZM59.4401 19.785V20.82H71.7251V19.785H59.4401ZM61.0751 17.385V18.39H70.3601V17.385H61.0751ZM61.0751 12.24V17.715H62.3051V13.245H70.2101V12.24H61.0751ZM61.9451 14.775V15.75H69.8801V14.775H61.9451ZM62.6201 20.355V25.17H63.8801V20.355H62.6201ZM67.2851 20.355V25.17H68.5301V20.355H67.2851ZM73.2539 22.335V23.385H85.5389V22.335H73.2539ZM74.6939 12.585V19.65H84.0689V12.585H82.8389V15.075H75.9239V12.585H74.6939ZM75.9239 16.08H82.8389V18.63H75.9239V16.08ZM92.5427 16.875V17.91H95.1077V16.875H92.5427ZM97.3727 11.61V25.17H98.5727V11.61H97.3727ZM94.6877 11.895V24.495H95.8727V11.895H94.6877ZM90.0977 12.735C88.3427 12.735 87.2177 14.55 87.2177 17.46C87.2177 20.37 88.3427 22.185 90.0977 22.185C91.8527 22.185 92.9927 20.37 92.9927 17.46C92.9927 14.55 91.8527 12.735 90.0977 12.735ZM90.0977 13.89C91.1777 13.89 91.8527 15.27 91.8527 17.46C91.8527 19.65 91.1777 21.03 90.0977 21.03C89.0327 21.03 88.3577 19.65 88.3577 17.46C88.3577 15.27 89.0327 13.89 90.0977 13.89ZM107.8 18.39V21.24H108.97V18.39H107.8ZM105.07 21.99C106.87 21.99 109.75 21.93 111.955 21.54L111.865 20.625C109.735 20.91 106.765 20.955 104.89 20.955L105.07 21.99ZM115.27 11.61V25.17H116.47V11.61H115.27ZM113.215 17.25V18.27H115.66V17.25H113.215ZM112.48 11.895V24.45H113.65V11.895H112.48ZM108.385 12.9C106.585 12.9 105.295 14.07 105.295 15.78C105.295 17.505 106.585 18.675 108.385 18.675C110.185 18.675 111.475 17.505 111.475 15.78C111.475 14.07 110.185 12.9 108.385 12.9ZM108.385 13.905C109.51 13.905 110.32 14.685 110.32 15.78C110.32 16.89 109.51 17.655 108.385 17.655C107.245 17.655 106.435 16.89 106.435 15.78C106.435 14.685 107.245 13.905 108.385 13.905ZM132.928 11.595V25.185H134.173V11.595H132.928ZM127.018 12.645C125.023 12.645 123.583 14.49 123.583 17.37C123.583 20.265 125.023 22.11 127.018 22.11C129.028 22.11 130.468 20.265 130.468 17.37C130.468 14.49 129.028 12.645 127.018 12.645ZM127.018 13.77C128.353 13.77 129.268 15.18 129.268 17.37C129.268 19.575 128.353 21.015 127.018 21.015C125.698 21.015 124.768 19.575 124.768 17.37C124.768 15.18 125.698 13.77 127.018 13.77ZM146.787 11.61V19.065H148.032V11.61H146.787ZM138.882 19.83V20.775H148.332V19.83H138.882ZM143.622 21.345C141.222 21.345 139.827 22.02 139.827 23.25C139.827 24.48 141.222 25.155 143.622 25.155C146.007 25.155 147.402 24.48 147.402 23.25C147.402 22.02 146.007 21.345 143.622 21.345ZM143.622 22.245C145.272 22.245 146.202 22.605 146.202 23.25C146.202 23.91 145.272 24.27 143.622 24.27C141.957 24.27 141.027 23.91 141.027 23.25C141.027 22.605 141.957 22.245 143.622 22.245ZM142.992 18.54V20.52H144.237V18.54H142.992ZM137.442 17.205V18.18H138.462C140.877 18.18 142.587 18.105 144.627 17.76L144.522 16.785C142.512 17.13 140.832 17.205 138.462 17.205H137.442ZM137.412 12.225V13.2H142.197V14.7H137.442V17.685H138.672V15.615H143.412V12.225H137.412ZM144.252 14.265V15.27H147.177V14.265H144.252ZM161.006 11.61V25.17H162.206V11.61H161.006ZM155.126 17.145V18.15H158.546V17.145H155.126ZM158.186 11.955V24.48H159.356V11.955H158.186ZM155.291 13.32V13.545C155.291 16.74 153.866 19.44 150.671 21.36L151.406 22.245C155.066 20.07 156.491 16.875 156.491 13.32H155.291ZM151.271 13.32V14.34H155.756V13.32H151.271ZM170.323 11.82V16.29H179.353V11.82H178.108V13.08H171.553V11.82H170.323ZM171.553 14.04H178.108V15.33H171.553V14.04ZM168.688 17.595V18.6H180.943V17.595H168.688ZM174.193 15.84V17.91H175.423V15.84H174.193ZM170.173 19.725V20.67H178.153V21.84H170.203V24.42H171.433V22.74H179.383V19.725H170.173ZM170.203 24.06V25.02H179.788V24.06H170.203ZM187.276 12.825V19.11H193.501V12.825H187.276ZM192.286 13.83V18.105H188.491V13.83H192.286ZM195.991 11.595V21.54H197.236V11.595H195.991ZM196.846 15.735V16.77H199.246V15.735H196.846ZM188.791 23.85V24.87H197.851V23.85H188.791ZM188.791 20.595V24.285H190.036V20.595H188.791ZM209.79 11.625V21.795H211.035V11.625H209.79ZM210.645 16.065V17.115H213.045V16.065H210.645ZM200.55 13.26V14.265H208.56V13.26H200.55ZM204.555 15.015C202.62 15.015 201.3 16.02 201.3 17.55C201.3 19.065 202.62 20.07 204.555 20.07C206.475 20.07 207.795 19.065 207.795 17.55C207.795 16.02 206.475 15.015 204.555 15.015ZM204.555 15.99C205.77 15.99 206.61 16.605 206.61 17.55C206.61 18.48 205.77 19.095 204.555 19.095C203.325 19.095 202.485 18.48 202.485 17.55C202.485 16.605 203.325 15.99 204.555 15.99ZM203.925 11.61V13.785H205.17V11.61H203.925ZM202.59 23.85V24.87H211.65V23.85H202.59ZM202.59 20.985V24.285H203.835V20.985H202.59ZM224.638 11.61V25.17H225.838V11.61H224.638ZM218.758 17.145V18.15H222.178V17.145H218.758ZM221.818 11.955V24.48H222.988V11.955H221.818ZM218.923 13.32V13.545C218.923 16.74 217.498 19.44 214.303 21.36L215.038 22.245C218.698 20.07 220.123 16.875 220.123 13.32H218.923ZM214.903 13.32V14.34H219.388V13.32H214.903ZM233.881 19.56V24.99H238.576V19.56H237.421V21.255H235.051V19.56H233.881ZM235.051 22.185H237.421V24.015H235.051V22.185ZM241.201 19.485V20.61C241.201 21.99 240.361 23.475 238.726 24.165L239.356 25.11C241.231 24.315 242.161 22.455 242.161 20.61V19.485H241.201ZM241.456 19.485V20.61C241.456 22.53 242.371 24.33 244.261 25.11L244.891 24.165C243.256 23.535 242.416 22.065 242.416 20.61V19.485H241.456ZM239.146 14.79V15.825H242.791V14.79H239.146ZM236.026 12.21C234.001 12.21 232.531 13.47 232.531 15.33C232.531 17.175 234.001 18.45 236.026 18.45C238.051 18.45 239.521 17.175 239.521 15.33C239.521 13.47 238.051 12.21 236.026 12.21ZM236.026 13.245C237.361 13.245 238.321 14.1 238.321 15.33C238.321 16.545 237.361 17.415 236.026 17.415C234.691 17.415 233.731 16.545 233.731 15.33C233.731 14.1 234.691 13.245 236.026 13.245ZM242.236 11.61V18.795H243.481V11.61H242.236ZM256.17 15.015V16.065H258.66V15.015H256.17ZM256.17 19.035V20.085H258.66V19.035H256.17ZM255.3 11.595V25.17H256.56V11.595H255.3ZM246.66 12.93V21.33H247.905V12.93H246.66ZM246.66 20.685V21.765H247.755C249.81 21.765 251.88 21.615 254.19 21.135L254.04 20.085C251.805 20.55 249.75 20.685 247.755 20.685H246.66ZM264.167 16.2V17.22H276.392V16.2H264.167ZM267.407 16.905V23.055H268.637V16.905H267.407ZM271.862 16.905V23.055H273.107V16.905H271.862ZM277.966 16.2V17.22H290.191V16.2H277.966ZM281.206 16.905V23.055H282.436V16.905H281.206ZM285.661 16.905V23.055H286.906V16.905H285.661Z" fill="black"/>
<path d="M302.486 29.9153C302.486 26.0169 303.874 19 303.874 19L290 35.7627C297.579 40.2921 302.886 41.7404 312 42C308.037 38.837 302.486 33.8136 302.486 29.9153Z" fill="#FEF01B"/>
</svg>
