<svg width="289" height="42" viewBox="0 0 289 42" fill="none" xmlns="http://www.w3.org/2000/svg">
<rect width="281" height="38" rx="19" transform="matrix(-1 0 0 1 281 0)" fill="#FEF01B"/>
<path d="M19.7924 12.6V13.02C19.7924 14.535 17.5874 15.75 15.1424 15.99L15.5924 16.995C18.4124 16.65 20.9024 15.195 20.9024 13.02V12.6H19.7924ZM20.3174 12.6V13.02C20.3174 15.195 22.8074 16.65 25.6124 16.995L26.0624 15.99C23.6174 15.75 21.4124 14.535 21.4124 13.02V12.6H20.3174ZM15.5924 12.105V13.125H25.6274V12.105H15.5924ZM19.9724 16.305V18.765H21.2024V16.305H19.9724ZM15.9674 20.61V24.99H25.2224V20.61H15.9674ZM24.0074 21.6V23.985H17.1974V21.6H24.0074ZM14.4674 18.195V19.2H26.7224V18.195H14.4674ZM42.865 11.61V25.17H44.05V11.61H42.865ZM40.72 17.07V18.12H43.33V17.07H40.72ZM39.91 11.895V24.495H41.08V11.895H39.91ZM35.29 13.71V15.27C35.29 18.03 34.3 20.34 32.35 21.42L33.115 22.38C35.2 21.135 36.265 18.525 36.265 15.27V13.71H35.29ZM35.515 13.71V15.27C35.515 18.255 36.595 20.76 38.665 21.9L39.4 20.94C37.495 19.965 36.49 17.76 36.49 15.27V13.71H35.515ZM32.665 13.2V14.235H38.965V13.2H32.665ZM49.6738 19.845V20.715C49.6738 22.02 48.6538 23.475 46.9438 24.09L47.5738 25.02C49.5238 24.27 50.6338 22.485 50.6338 20.715V19.845H49.6738ZM49.9438 19.845V20.715C49.9438 22.515 50.8288 24.375 52.7788 25.14L53.3038 24.195C51.6838 23.535 50.8738 22.08 50.8738 20.715V19.845H49.9438ZM54.6838 19.845V20.715C54.6838 21.885 53.8588 23.46 52.2538 24.195L52.7788 25.14C54.7138 24.315 55.6138 22.305 55.6138 20.715V19.845H54.6838ZM54.9388 19.845V20.715C54.9388 22.59 56.0188 24.3 57.9988 25.02L58.6288 24.09C56.9038 23.505 55.8988 22.11 55.8988 20.715V19.845H54.9388ZM47.0038 12.495V18.405H53.3188V12.495H47.0038ZM52.1188 13.5V17.4H48.2038V13.5H52.1188ZM56.1538 11.625V19.395H57.4138V11.625H56.1538ZM66.2177 12.465C63.3977 12.465 61.2827 13.965 61.2827 16.215C61.2827 18.48 63.3977 19.965 66.2177 19.965C69.0377 19.965 71.1377 18.48 71.1377 16.215C71.1377 13.965 69.0377 12.465 66.2177 12.465ZM66.2177 13.485C68.3627 13.485 69.9527 14.58 69.9527 16.215C69.9527 17.835 68.3627 18.945 66.2177 18.945C64.0727 18.945 62.4827 17.835 62.4827 16.215C62.4827 14.58 64.0727 13.485 66.2177 13.485ZM60.0977 22.335V23.385H72.3827V22.335H60.0977ZM80.3915 13.995V15.015H84.1865V13.995H80.3915ZM80.3915 16.89V17.925H84.2165V16.89H80.3915ZM74.5115 12.78V19.14H80.7065V12.78H74.5115ZM79.4765 13.785V18.135H75.7265V13.785H79.4765ZM83.7965 11.625V21.525H85.0415V11.625H83.7965ZM76.3265 23.85V24.87H85.3715V23.85H76.3265ZM76.3265 20.625V24.315H77.5715V20.625H76.3265ZM94.4603 16.2V17.22H98.2403V16.2H94.4603ZM91.1903 12.78V15.195C91.1903 17.715 89.6603 20.325 87.6653 21.315L88.4603 22.305C90.6053 21.15 92.2103 18.24 92.2103 15.195V12.78H91.1903ZM91.4303 12.78V15.195C91.4303 18.165 93.0053 20.955 95.1953 22.065L95.9303 21.06C93.9653 20.13 92.4353 17.67 92.4353 15.195V12.78H91.4303ZM97.6253 11.595V25.185H98.8553V11.595H97.6253ZM108.548 12.42V14.235C108.548 15.78 107.483 17.565 105.713 18.36L106.388 19.335C108.383 18.42 109.538 16.275 109.538 14.235V12.42H108.548ZM108.743 12.42V14.235C108.743 16.26 109.853 18.165 111.818 18.99L112.478 18.03C110.738 17.325 109.733 15.78 109.733 14.235V12.42H108.743ZM115.943 11.625V19.815H117.128V11.625H115.943ZM113.753 15.135V16.17H116.318V15.135H113.753ZM113.033 11.85V19.74H114.218V11.85H113.033ZM108.038 20.55V21.57H115.898V25.17H117.128V20.55H108.038ZM128.677 11.595V25.185H129.937V11.595H128.677ZM129.637 16.95V18H132.157V16.95H129.637ZM120.082 20.76V21.81H121.147C123.697 21.81 125.482 21.735 127.567 21.345L127.432 20.295C125.407 20.67 123.652 20.76 121.147 20.76H120.082ZM120.082 12.915V21.225H121.312V13.935H126.382V12.915H120.082ZM133.296 19.125V20.13H145.596V19.125H133.296ZM134.916 23.85V24.87H144.306V23.85H134.916ZM134.916 21.195V24.24H136.161V21.195H134.916ZM134.856 12.06V13.035H142.791V14.505H134.886V17.25H136.116V15.42H144.006V12.06H134.856ZM134.886 16.92V17.895H144.306V16.92H134.886ZM157.493 13.56V14.58H161.633V13.56H157.493ZM157.493 16.68V17.715H161.633V16.68H157.493ZM155.018 12.405C153.008 12.405 151.523 13.755 151.523 15.63C151.523 17.52 153.008 18.855 155.018 18.855C157.013 18.855 158.513 17.52 158.513 15.63C158.513 13.755 157.013 12.405 155.018 12.405ZM155.018 13.47C156.338 13.47 157.328 14.355 157.328 15.63C157.328 16.905 156.338 17.79 155.018 17.79C153.698 17.79 152.723 16.905 152.723 15.63C152.723 14.355 153.698 13.47 155.018 13.47ZM161.228 11.61V19.635H162.473V11.61H161.228ZM158.018 19.95C155.213 19.95 153.488 20.91 153.488 22.545C153.488 24.195 155.213 25.14 158.018 25.14C160.808 25.14 162.533 24.195 162.533 22.545C162.533 20.91 160.808 19.95 158.018 19.95ZM158.018 20.94C160.058 20.94 161.303 21.54 161.303 22.545C161.303 23.565 160.058 24.165 158.018 24.165C155.963 24.165 154.718 23.565 154.718 22.545C154.718 21.54 155.963 20.94 158.018 20.94ZM168.412 12.315V13.695C168.412 15.765 167.092 17.595 165.052 18.345L165.712 19.35C167.977 18.465 169.447 16.305 169.447 13.695V12.315H168.412ZM168.637 12.315V13.785C168.637 16.14 170.122 18.15 172.297 18.96L172.957 17.985C171.007 17.31 169.657 15.615 169.657 13.785V12.315H168.637ZM174.397 11.61V19.83H175.642V11.61H174.397ZM175.297 15.105V16.155H177.652V15.105H175.297ZM171.322 20.205C168.547 20.205 166.867 21.12 166.867 22.68C166.867 24.24 168.547 25.14 171.322 25.14C174.097 25.14 175.777 24.24 175.777 22.68C175.777 21.12 174.097 20.205 171.322 20.205ZM171.322 21.195C173.332 21.195 174.562 21.735 174.562 22.68C174.562 23.625 173.332 24.165 171.322 24.165C169.312 24.165 168.082 23.625 168.082 22.68C168.082 21.735 169.312 21.195 171.322 21.195ZM183.145 22.41V23.445H195.43V22.41H183.145ZM188.635 19.17V22.71H189.88V19.17H188.635ZM184.585 12.57V19.5H193.96V12.57H192.73V14.985H185.815V12.57H184.585ZM185.815 15.99H192.73V18.48H185.815V15.99ZM198.233 12.96V13.995H206.963V12.96H198.233ZM196.943 22.245V23.28H209.198V22.245H196.943ZM201.698 17.4V22.755H202.943V17.4H201.698ZM206.498 12.96V14.31C206.498 15.93 206.498 17.835 205.988 20.43L207.233 20.595C207.728 17.85 207.728 15.99 207.728 14.31V12.96H206.498ZM224.816 11.625V19.14H226.076V11.625H224.816ZM218.486 12.105V13.425C218.486 15.375 217.076 17.175 215.036 17.895L215.666 18.87C217.961 18.045 219.521 15.93 219.521 13.425V12.105H218.486ZM218.711 12.105V13.425C218.711 15.855 220.271 17.85 222.551 18.63L223.166 17.64C221.156 16.98 219.731 15.315 219.731 13.425V12.105H218.711ZM217.106 19.95V20.97H226.151V19.95H217.106ZM216.971 23.985V24.99H226.301V23.985H216.971ZM218.966 20.385V24.57H220.181V20.385H218.966ZM223.076 20.385V24.57H224.306V20.385H223.076ZM228.745 18.735V19.755H241V18.735H228.745ZM230.335 23.85V24.87H239.65V23.85H230.335ZM230.335 20.94V24.165H231.58V20.94H230.335ZM234.88 12.06C231.97 12.06 230.11 13.08 230.11 14.775C230.11 16.455 231.97 17.475 234.88 17.475C237.775 17.475 239.65 16.455 239.65 14.775C239.65 13.08 237.775 12.06 234.88 12.06ZM234.88 13.08C237.01 13.08 238.375 13.71 238.375 14.775C238.375 15.84 237.01 16.47 234.88 16.47C232.75 16.47 231.385 15.84 231.385 14.775C231.385 13.71 232.75 13.08 234.88 13.08ZM252.864 11.61V25.17H254.064V11.61H252.864ZM247.239 16.785V17.805H250.644V16.785H247.239ZM250.134 11.925V24.48H251.319V11.925H250.134ZM243.054 20.865V21.915H243.924C246.084 21.915 247.389 21.855 248.934 21.525L248.814 20.49C247.314 20.805 246.039 20.865 243.924 20.865H243.054ZM243.054 13.26V21.27H244.284V14.28H248.154V13.26H243.054ZM257.674 24.0852C257.411 24.0852 257.186 23.9911 256.998 23.8029C256.809 23.6147 256.715 23.3892 256.715 23.1264C256.715 22.8636 256.809 22.6381 256.998 22.4499C257.186 22.2617 257.411 22.1676 257.674 22.1676C257.937 22.1676 258.162 22.2617 258.351 22.4499C258.539 22.6381 258.633 22.8636 258.633 23.1264C258.633 23.3004 258.589 23.4602 258.5 23.6058C258.415 23.7514 258.299 23.8686 258.154 23.9574C258.012 24.0426 257.852 24.0852 257.674 24.0852ZM261.805 24.0852C261.542 24.0852 261.317 23.9911 261.129 23.8029C260.94 23.6147 260.846 23.3892 260.846 23.1264C260.846 22.8636 260.94 22.6381 261.129 22.4499C261.317 22.2617 261.542 22.1676 261.805 22.1676C262.068 22.1676 262.293 22.2617 262.482 22.4499C262.67 22.6381 262.764 22.8636 262.764 23.1264C262.764 23.3004 262.719 23.4602 262.631 23.6058C262.545 23.7514 262.43 23.8686 262.284 23.9574C262.142 24.0426 261.983 24.0852 261.805 24.0852ZM265.936 24.0852C265.673 24.0852 265.448 23.9911 265.259 23.8029C265.071 23.6147 264.977 23.3892 264.977 23.1264C264.977 22.8636 265.071 22.6381 265.259 22.4499C265.448 22.2617 265.673 22.1676 265.936 22.1676C266.199 22.1676 266.424 22.2617 266.612 22.4499C266.801 22.6381 266.895 22.8636 266.895 23.1264C266.895 23.3004 266.85 23.4602 266.762 23.6058C266.676 23.7514 266.561 23.8686 266.415 23.9574C266.273 24.0426 266.113 24.0852 265.936 24.0852Z" fill="black"/>
<path d="M279.486 29.9153C279.486 26.0169 280.874 19 280.874 19L267 35.7627C274.579 40.2921 279.886 41.7404 289 42C285.037 38.837 279.486 33.8136 279.486 29.9153Z" fill="#FEF01B"/>
</svg>
