<svg width="267" height="42" viewBox="0 0 267 42" fill="none" xmlns="http://www.w3.org/2000/svg">
<rect width="259" height="38" rx="19" transform="matrix(-1 0 0 1 259 0)" fill="#FEF01B"/>
<path d="M19.9601 20.235V25.185H21.1901V20.235H19.9601ZM14.4551 19.8V20.835H26.7101V19.8H14.4551ZM19.9451 13.935V14.28C19.9451 15.975 17.6651 17.46 15.2201 17.79L15.6551 18.78C18.5051 18.345 21.0401 16.62 21.0401 14.28V13.935H19.9451ZM20.1101 13.935V14.28C20.1101 16.59 22.6301 18.36 25.4651 18.78L25.9151 17.79C23.4851 17.46 21.1901 15.96 21.1901 14.28V13.935H20.1101ZM15.6401 13.275V14.295H25.5251V13.275H15.6401ZM19.9601 11.61V13.635H21.1901V11.61H19.9601ZM31.6289 14.16V14.835C31.6289 16.74 30.2939 18.42 28.2839 19.11L28.8989 20.085C31.1639 19.29 32.6489 17.28 32.6489 14.835V14.16H31.6289ZM31.8389 14.16V14.835C31.8389 17.175 33.3839 19.095 35.6489 19.845L36.2639 18.855C34.2539 18.225 32.8739 16.635 32.8739 14.835V14.16H31.8389ZM28.6289 13.425V14.43H35.8589V13.425H28.6289ZM31.6289 11.7V13.8H32.8739V11.7H31.6289ZM35.4089 15.78V16.815H38.8289V15.78H35.4089ZM38.1539 11.625V21.735H39.3989V11.625H38.1539ZM30.7439 23.85V24.87H39.7739V23.85H30.7439ZM30.7439 20.835V24.405H31.9889V20.835H30.7439ZM52.4365 13.56V14.58H56.5765V13.56H52.4365ZM52.4365 16.68V17.715H56.5765V16.68H52.4365ZM49.9615 12.405C47.9515 12.405 46.4665 13.755 46.4665 15.63C46.4665 17.52 47.9515 18.855 49.9615 18.855C51.9565 18.855 53.4565 17.52 53.4565 15.63C53.4565 13.755 51.9565 12.405 49.9615 12.405ZM49.9615 13.47C51.2815 13.47 52.2715 14.355 52.2715 15.63C52.2715 16.905 51.2815 17.79 49.9615 17.79C48.6415 17.79 47.6665 16.905 47.6665 15.63C47.6665 14.355 48.6415 13.47 49.9615 13.47ZM56.1715 11.61V19.635H57.4165V11.61H56.1715ZM52.9615 19.95C50.1565 19.95 48.4315 20.91 48.4315 22.545C48.4315 24.195 50.1565 25.14 52.9615 25.14C55.7515 25.14 57.4765 24.195 57.4765 22.545C57.4765 20.91 55.7515 19.95 52.9615 19.95ZM52.9615 20.94C55.0015 20.94 56.2465 21.54 56.2465 22.545C56.2465 23.565 55.0015 24.165 52.9615 24.165C50.9065 24.165 49.6615 23.565 49.6615 22.545C49.6615 21.54 50.9065 20.94 52.9615 20.94ZM63.3553 12.315V13.695C63.3553 15.765 62.0353 17.595 59.9953 18.345L60.6553 19.35C62.9203 18.465 64.3903 16.305 64.3903 13.695V12.315H63.3553ZM63.5803 12.315V13.785C63.5803 16.14 65.0653 18.15 67.2403 18.96L67.9003 17.985C65.9503 17.31 64.6003 15.615 64.6003 13.785V12.315H63.5803ZM69.3403 11.61V19.83H70.5853V11.61H69.3403ZM70.2403 15.105V16.155H72.5953V15.105H70.2403ZM66.2653 20.205C63.4903 20.205 61.8103 21.12 61.8103 22.68C61.8103 24.24 63.4903 25.14 66.2653 25.14C69.0403 25.14 70.7203 24.24 70.7203 22.68C70.7203 21.12 69.0403 20.205 66.2653 20.205ZM66.2653 21.195C68.2753 21.195 69.5053 21.735 69.5053 22.68C69.5053 23.625 68.2753 24.165 66.2653 24.165C64.2553 24.165 63.0253 23.625 63.0253 22.68C63.0253 21.735 64.2553 21.195 66.2653 21.195ZM84.5079 18.24V19.26H89.3979V18.24H84.5079ZM78.0729 22.29V23.325H90.3729V22.29H78.0729ZM84.5079 13.035V18.57H85.7529V14.04H89.2629V13.035H84.5079ZM79.1679 13.05V18.525H80.4129V14.07H83.7729V13.05H79.1679ZM79.1679 18.24V19.26H79.9179C81.2979 19.26 82.5279 19.215 83.9979 18.9L83.8779 17.865C82.4679 18.195 81.2379 18.24 79.9179 18.24H79.1679ZM93.5367 15.675V16.695H102.747V15.675H93.5367ZM91.8717 18.51V19.53H104.172V18.51H91.8717ZM93.5367 12.105V16.185H94.7667V12.105H93.5367ZM93.4467 23.82V24.84H102.822V23.82H93.4467ZM93.4467 20.88V24.09H94.6767V20.88H93.4467ZM119.804 11.61V20.79H121.049V11.61H119.804ZM116.894 15.435V16.455H120.059V15.435H116.894ZM115.544 12.675V13.17C115.544 15.825 113.564 17.865 110.129 18.945L110.654 19.935C114.539 18.675 116.849 16.185 116.849 12.675H115.544ZM110.774 12.675V13.695H116.429V12.675H110.774ZM116.054 19.62V20.235C116.054 22.215 113.939 23.715 111.539 24.15L112.034 25.14C114.749 24.585 117.119 22.83 117.119 20.235V19.62H116.054ZM116.234 19.62V20.235C116.234 22.815 118.574 24.57 121.274 25.11L121.799 24.12C119.384 23.685 117.299 22.185 117.299 20.235V19.62H116.234ZM125.248 17.94V18.96H134.563V17.94H125.248ZM123.703 22.425V23.475H135.988V22.425H123.703ZM129.193 18.375V22.845H130.438V18.375H129.193ZM125.248 12.69V18.39H126.493V13.71H134.428V12.69H125.248ZM148.111 13.53V14.505H151.936V13.53H148.111ZM148.111 16.005V16.98H151.936V16.005H148.111ZM151.621 11.61V18.675H152.866V11.61H151.621ZM144.136 19.35V20.34H151.636V21.63H144.166V24.645H145.381V22.56H152.866V19.35H144.136ZM144.166 24V24.99H153.361V24H144.166ZM142.381 12.225V18.15H148.501V12.225H147.286V14.175H143.611V12.225H142.381ZM143.611 15.15H147.286V17.145H143.611V15.15ZM155.52 22.47V23.505H167.805V22.47H155.52ZM161.01 19.56V22.905H162.255V19.56H161.01ZM157.005 12.615V13.62H165.06V15.72H157.05V19.44H158.28V16.725H166.29V12.615H157.005ZM157.05 18.915V19.935H166.605V18.915H157.05ZM183.902 11.61V25.17H185.087V11.61H183.902ZM181.757 17.07V18.12H184.367V17.07H181.757ZM180.947 11.895V24.495H182.117V11.895H180.947ZM176.327 13.71V15.27C176.327 18.03 175.337 20.34 173.387 21.42L174.152 22.38C176.237 21.135 177.302 18.525 177.302 15.27V13.71H176.327ZM176.552 13.71V15.27C176.552 18.255 177.632 20.76 179.702 21.9L180.437 20.94C178.532 19.965 177.527 17.76 177.527 15.27V13.71H176.552ZM173.702 13.2V14.235H180.002V13.2H173.702ZM188.101 12.93V21.765H194.341V12.93H188.101ZM193.126 13.935V20.76H189.316V13.935H193.126ZM197.176 11.595V25.185H198.421V11.595H197.176ZM210.3 11.595V25.17H211.56V11.595H210.3ZM211.215 17.1V18.135H213.72V17.1H211.215ZM206.835 13.065V13.26C206.835 16.845 204.96 19.74 201.21 21.645L201.9 22.605C206.28 20.4 208.05 16.92 208.05 13.065H206.835ZM201.84 13.065V14.085H207.48V13.065H201.84ZM220.697 19.56V24.99H225.392V19.56H224.237V21.255H221.867V19.56H220.697ZM221.867 22.185H224.237V24.015H221.867V22.185ZM228.017 19.485V20.61C228.017 21.99 227.177 23.475 225.542 24.165L226.172 25.11C228.047 24.315 228.977 22.455 228.977 20.61V19.485H228.017ZM228.272 19.485V20.61C228.272 22.53 229.187 24.33 231.077 25.11L231.707 24.165C230.072 23.535 229.232 22.065 229.232 20.61V19.485H228.272ZM225.962 14.79V15.825H229.607V14.79H225.962ZM222.842 12.21C220.817 12.21 219.347 13.47 219.347 15.33C219.347 17.175 220.817 18.45 222.842 18.45C224.867 18.45 226.337 17.175 226.337 15.33C226.337 13.47 224.867 12.21 222.842 12.21ZM222.842 13.245C224.177 13.245 225.137 14.1 225.137 15.33C225.137 16.545 224.177 17.415 222.842 17.415C221.507 17.415 220.547 16.545 220.547 15.33C220.547 14.1 221.507 13.245 222.842 13.245ZM229.052 11.61V18.795H230.297V11.61H229.052ZM236.566 12.645C234.586 12.645 233.191 14.49 233.191 17.37C233.191 20.265 234.586 22.11 236.566 22.11C238.531 22.11 239.941 20.265 239.941 17.37C239.941 14.49 238.531 12.645 236.566 12.645ZM236.566 13.77C237.871 13.77 238.756 15.18 238.756 17.37C238.756 19.575 237.871 21.015 236.566 21.015C235.261 21.015 234.376 19.575 234.376 17.37C234.376 15.18 235.261 13.77 236.566 13.77ZM242.881 11.595V25.185H244.111V11.595H242.881ZM239.536 16.77V17.79H243.421V16.77H239.536Z" fill="black"/>
<path d="M257.486 29.9153C257.486 26.0169 258.874 19 258.874 19L245 35.7627C252.579 40.2921 257.886 41.7404 267 42C263.037 38.837 257.486 33.8136 257.486 29.9153Z" fill="#FEF01B"/>
</svg>
